<mxfile host="app.diagrams.net" agent="Mozilla/5.0 (Macintosh; Intel Mac OS X 10_15_7) AppleWebKit/537.36 (KHTML, like Gecko) Chrome/128.0.0.0 Safari/537.36" version="24.7.14">
  <diagram name="Page-1" id="mX4iCVw0fcfdv5UTDJnb">
    <mxGraphModel dx="943" dy="571" grid="1" gridSize="10" guides="1" tooltips="1" connect="1" arrows="1" fold="1" page="1" pageScale="1" pageWidth="827" pageHeight="1169" math="0" shadow="0">
      <root>
        <mxCell id="0" />
        <mxCell id="1" parent="0" />
        <mxCell id="VmPJ7PfKZMlfwyWr4RU5-1" value="Autocomplete" style="rounded=0;whiteSpace=wrap;html=1;" vertex="1" parent="1">
          <mxGeometry x="170" y="130" width="120" height="60" as="geometry" />
        </mxCell>
        <mxCell id="VmPJ7PfKZMlfwyWr4RU5-2" value="Input Box" style="rounded=0;whiteSpace=wrap;html=1;" vertex="1" parent="1">
          <mxGeometry x="150" y="260" width="590" height="60" as="geometry" />
        </mxCell>
        <mxCell id="VmPJ7PfKZMlfwyWr4RU5-3" value="Search button" style="rounded=0;whiteSpace=wrap;html=1;" vertex="1" parent="1">
          <mxGeometry x="740" y="260" width="120" height="60" as="geometry" />
        </mxCell>
        <mxCell id="VmPJ7PfKZMlfwyWr4RU5-5" style="edgeStyle=orthogonalEdgeStyle;rounded=0;orthogonalLoop=1;jettySize=auto;html=1;" edge="1" parent="1" source="VmPJ7PfKZMlfwyWr4RU5-4" target="VmPJ7PfKZMlfwyWr4RU5-2">
          <mxGeometry relative="1" as="geometry" />
        </mxCell>
        <mxCell id="VmPJ7PfKZMlfwyWr4RU5-4" value="The input text should give autosuggestions" style="text;html=1;align=center;verticalAlign=middle;whiteSpace=wrap;rounded=0;" vertex="1" parent="1">
          <mxGeometry x="90" y="370" width="260" height="30" as="geometry" />
        </mxCell>
        <mxCell id="VmPJ7PfKZMlfwyWr4RU5-6" value="History/New Search&amp;nbsp; - Text 0r/And Image" style="rounded=1;whiteSpace=wrap;html=1;" vertex="1" parent="1">
          <mxGeometry x="180" y="430" width="560" height="20" as="geometry" />
        </mxCell>
        <mxCell id="VmPJ7PfKZMlfwyWr4RU5-7" value="" style="rounded=1;whiteSpace=wrap;html=1;" vertex="1" parent="1">
          <mxGeometry x="180" y="450" width="560" height="20" as="geometry" />
        </mxCell>
        <mxCell id="VmPJ7PfKZMlfwyWr4RU5-8" value="" style="rounded=1;whiteSpace=wrap;html=1;" vertex="1" parent="1">
          <mxGeometry x="180" y="470" width="560" height="20" as="geometry" />
        </mxCell>
        <mxCell id="VmPJ7PfKZMlfwyWr4RU5-9" value="" style="rounded=1;whiteSpace=wrap;html=1;" vertex="1" parent="1">
          <mxGeometry x="180" y="490" width="560" height="20" as="geometry" />
        </mxCell>
        <mxCell id="VmPJ7PfKZMlfwyWr4RU5-10" value="Close" style="rounded=0;whiteSpace=wrap;html=1;" vertex="1" parent="1">
          <mxGeometry x="740" y="430" width="90" height="20" as="geometry" />
        </mxCell>
        <mxCell id="VmPJ7PfKZMlfwyWr4RU5-11" value="Close" style="rounded=0;whiteSpace=wrap;html=1;" vertex="1" parent="1">
          <mxGeometry x="740" y="450" width="90" height="20" as="geometry" />
        </mxCell>
        <mxCell id="VmPJ7PfKZMlfwyWr4RU5-12" value="Close" style="rounded=0;whiteSpace=wrap;html=1;" vertex="1" parent="1">
          <mxGeometry x="740" y="470" width="90" height="20" as="geometry" />
        </mxCell>
        <mxCell id="VmPJ7PfKZMlfwyWr4RU5-13" value="Close" style="rounded=0;whiteSpace=wrap;html=1;" vertex="1" parent="1">
          <mxGeometry x="740" y="490" width="90" height="20" as="geometry" />
        </mxCell>
        <mxCell id="VmPJ7PfKZMlfwyWr4RU5-14" value="Requirements -&amp;nbsp;&lt;br&gt;Make it generic,&lt;br&gt;should be customisable" style="rounded=1;whiteSpace=wrap;html=1;" vertex="1" parent="1">
          <mxGeometry x="170" y="570" width="450" height="110" as="geometry" />
        </mxCell>
      </root>
    </mxGraphModel>
  </diagram>
</mxfile>
